<?xml version="1.0" encoding="utf-8"?><svg xmlns="http://www.w3.org/2000/svg" xmlns:xlink="http://www.w3.org/1999/xlink" width="1366" height="635" preserveAspectRatio="xMidYMid" viewBox="0 0 1366 635" style="z-index:1;margin-right:-2px;display:block;background-repeat-y:initial;background-repeat-x:initial;background-color:rgb(255, 255, 255);animation-play-state:paused" ><g transform="" style="animation-play-state:paused" ><path id="path0" d="M 1249.63243392663 524.6606722387443
c 0 26.234164732829065 -6.418997753777323 7.535345189216859 -13.954342942994183 7.535345189216859
S 1221.7237480406418 550.8948369715733 1221.7237480406418 524.6606722387443
s 6.418997753777323 -7.535345189216859 13.954342942994183 -7.535345189216859
S 1249.63243392663 498.4265075059152 1249.63243392663 524.6606722387443
z" fill="none" stroke="none" style="animation-play-state:paused" ></path>


<circle cx="0" cy="0" r="4.926766029974661" fill="#51cacc" transform="translate(1243.69091796875 536.9708251953125)" style="animation-play-state:paused" ></circle>
<path id="path1" d="M 440.2476239417125 183.4768098993816
c 0 28.75437595546458 -7.035645180592397 8.25923564678238 -15.294880827374778 8.25923564678238
S 409.657862286963 212.2311858548462 409.657862286963 183.4768098993816
s 7.035645180592397 -8.25923564678238 15.294880827374778 -8.25923564678238
S 440.2476239417125 154.72243394391703 440.2476239417125 183.4768098993816
z" fill="none" stroke="none" style="animation-play-state:paused" ></path>


<circle cx="0" cy="0" r="4.740420009858288" fill="#de9dd6" transform="translate(419.6090087890625 172.88323974609375)" style="animation-play-state:paused" ></circle>
<path id="path2" d="M 610.1446249078712 445.29224632107247
c 0 20.23029852372298 -4.949966660059878 5.810830427026813 -10.76079708708669 5.810830427026813
S 588.6230307336979 465.52254484479545 588.6230307336979 445.29224632107247
s 4.949966660059878 -5.810830427026813 10.76079708708669 -5.810830427026813
S 610.1446249078712 425.0619477973495 610.1446249078712 445.29224632107247
z" fill="none" stroke="none" style="animation-play-state:paused" ></path>


<circle cx="0" cy="0" r="6.9758968254206515" fill="#e0ff77" transform="translate(591.0309448242188 434.5124206542969)" style="animation-play-state:paused" ></circle>
<path id="path3" d="M 1338.0007593455796 398.87027252913794
c 0 23.79311501915073 -5.82171963234539 6.83419261188372 -12.65591224422911 6.83419261188372
S 1312.6889348571215 422.66338754828865 1312.6889348571215 398.87027252913794
s 5.82171963234539 -6.83419261188372 12.65591224422911 -6.83419261188372
S 1338.0007593455796 375.0771575099872 1338.0007593455796 398.87027252913794
z" fill="none" stroke="none" style="animation-play-state:paused" ></path>


<circle cx="0" cy="0" r="5.166946981929335" fill="#51cacc" transform="translate(1326.115234375 391.96636962890625)" style="animation-play-state:paused" ></circle>
<path id="path4" d="M 966.3963818134889 127.81469146855756
c 0 31.967806384994304 -7.821910072924138 9.18224225951964 -17.004152332443777 9.18224225951964
S 932.3880771486013 159.78249785355186 932.3880771486013 127.81469146855756
s 7.821910072924138 -9.18224225951964 17.004152332443777 -9.18224225951964
S 966.3963818134889 95.84688508356325 966.3963818134889 127.81469146855756
z" fill="none" stroke="none" style="animation-play-state:paused" ></path>


<circle cx="0" cy="0" r="6.011839350125832" fill="#ff708e" transform="translate(942.8678588867188 115.57675170898438)" style="animation-play-state:paused" ></circle>
<path id="path5" d="M 707.0318730776922 540.0993360975838
c 0 30.423120205000384 -7.4439549437766885 8.73855580356394 -16.18251074734063 8.73855580356394
S 674.666851583011 570.5224563025841 674.666851583011 540.0993360975838
s 7.4439549437766885 -8.73855580356394 16.18251074734063 -8.73855580356394
S 707.0318730776922 509.6762158925834 707.0318730776922 540.0993360975838
z" fill="none" stroke="none" style="animation-play-state:paused" ></path>


<circle cx="0" cy="0" r="6.23084540798947" fill="#de9dd6" transform="translate(699.4984741210938 526.3712768554688)" style="animation-play-state:paused" ></circle>
<path id="path6" d="M 1332.281443530485 543.8537970111468
c 0 20.401852068409436 -4.991942527376777 5.860106445181434 -10.85204897255821 5.860106445181434
S 1310.5773455853687 564.2556490795562 1310.5773455853687 543.8537970111468
s 4.991942527376777 -5.860106445181434 10.85204897255821 -5.860106445181434
S 1332.281443530485 523.4519449427373 1332.281443530485 543.8537970111468
z" fill="none" stroke="none" style="animation-play-state:paused" ></path>


<circle cx="0" cy="0" r="7.079670891722342" fill="#51cacc" transform="translate(1310.58056640625 544.6666870117188)" style="animation-play-state:paused" ></circle>
<path id="path7" d="M 619.6052184723711 468.01952877376476
c 0 20.226011593309277 -4.948917730277802 5.809599074673942 -10.758516804951743 5.809599074673942
S 598.0881848624675 488.24554036707406 598.0881848624675 468.01952877376476
s 4.948917730277802 -5.809599074673942 10.758516804951743 -5.809599074673942
S 619.6052184723711 447.79351718045547 619.6052184723711 468.01952877376476
z" fill="none" stroke="none" style="animation-play-state:paused" ></path>


<circle cx="0" cy="0" r="6.0895564624856195" fill="#e0ff77" transform="translate(599.2345581054688 457.9711608886719)" style="animation-play-state:paused" ></circle>
<path id="path8" d="M 728.2967849325414 16.773435610062023
c 0 33.794322730764854 -8.26882364688927 9.706879933304798 -17.975703580194068 9.706879933304798
S 692.3453777721534 50.56775834082688 692.3453777721534 16.773435610062023
s 8.26882364688927 -9.706879933304798 17.975703580194068 -9.706879933304798
S 728.2967849325414 -17.02088712070283 728.2967849325414 16.773435610062023
z" fill="none" stroke="none" style="animation-play-state:paused" ></path>


<circle cx="0" cy="0" r="4.532733320609877" fill="#9df871" transform="translate(707.1994018554688 6.310657024383545)" style="animation-play-state:paused" ></circle>
<path id="path9" d="M 609.6908732404179 163.68357147787842
c 0 36.16341997225374 -8.848496376189743 10.387365311179266 -19.23586168736901 10.387365311179266
S 571.2191498656798 199.84699145013215 571.2191498656798 163.68357147787842
s 8.848496376189743 -10.387365311179266 19.23586168736901 -10.387365311179266
S 609.6908732404179 127.52015150562468 609.6908732404179 163.68357147787842
z" fill="none" stroke="none" style="animation-play-state:paused" ></path>


<circle cx="0" cy="0" r="5.041532958081508" fill="#9df871" transform="translate(607.770751953125 145.9499053955078)" style="animation-play-state:paused" ></circle>
<path id="path10" d="M 325.0959974282014 372.9981874385004
c 0 31.277090774057704 -7.652905189397098 8.983845222335724 -16.63675041173282 8.983845222335724
S 291.82249660473576 404.2752782125581 291.82249660473576 372.9981874385004
s 7.652905189397098 -8.983845222335724 16.63675041173282 -8.983845222335724
S 325.0959974282014 341.7210966644427 325.0959974282014 372.9981874385004
z" fill="none" stroke="none" style="animation-play-state:paused" ></path>


<circle cx="0" cy="0" r="7.559894240427967" fill="#e0ff77" transform="translate(324.5545349121094 384.06170654296875)" style="animation-play-state:paused" ></circle>
<path id="path11" d="M 696.2766634517341 507.157189567142
c 0 19.70318161024638 -4.820991245060283 5.659424505070768 -10.480415750131051 5.659424505070768
S 675.3158319514719 526.8603711773884 675.3158319514719 507.157189567142
s 4.820991245060283 -5.659424505070768 10.480415750131051 -5.659424505070768
S 696.2766634517341 487.4540079568956 696.2766634517341 507.157189567142
z" fill="none" stroke="none" style="animation-play-state:paused" ></path>


<circle cx="0" cy="0" r="6.530482035609776" fill="#51cacc" transform="translate(696.0116577148438 500.8052978515625)" style="animation-play-state:paused" ></circle>
<path id="path12" d="M 747.3847131127181 438.15538684995863
c 0 27.388257505753025 -6.701382155662973 7.86683992186523 -14.568222077528203 7.86683992186523
S 718.2482689576618 465.54364435571165 718.2482689576618 438.15538684995863
s 6.701382155662973 -7.86683992186523 14.568222077528203 -7.86683992186523
S 747.3847131127181 410.7671293442056 747.3847131127181 438.15538684995863
z" fill="none" stroke="none" style="animation-play-state:paused" ></path>


<circle cx="0" cy="0" r="6.9152653941428905" fill="#e0ff77" transform="translate(719.0889892578125 449.8411560058594)" style="animation-play-state:paused" ></circle>
<path id="path13" d="M 1202.9985322311768 510.08477096700125
c 0 35.8652441716173 -8.77553846752338 10.301719070570925 -19.077257538094305 10.301719070570925
S 1164.8440171549883 545.9500151386186 1164.8440171549883 510.08477096700125
s 8.77553846752338 -10.301719070570925 19.077257538094305 -10.301719070570925
S 1202.9985322311768 474.21952679538396 1202.9985322311768 510.08477096700125
z" fill="none" stroke="none" style="animation-play-state:paused" ></path>


<circle cx="0" cy="0" r="6.257990173875813" fill="#51cacc" transform="translate(1165.2774658203125 521.1886596679688)" style="animation-play-state:paused" ></circle>
<path id="path14" d="M 1154.5511229290503 502.64876173929605
c 0 23.04442166437936 -5.638528705114099 6.619142392960029 -12.257671098074127 6.619142392960029
S 1130.0357807329021 525.6931834036754 1130.0357807329021 502.64876173929605
s 5.638528705114099 -6.619142392960029 12.257671098074127 -6.619142392960029
S 1154.5511229290503 479.6043400749167 1154.5511229290503 502.64876173929605
z" fill="none" stroke="none" style="animation-play-state:paused" ></path>


<circle cx="0" cy="0" r="5.657541994565956" fill="#51cacc" transform="translate(1149.6259765625 491.5936584472656)" style="animation-play-state:paused" ></circle>
<path id="path15" d="M 1056.3046652554397 479.06435944984696
c 0 31.98171552353542 -7.825313372779942 9.186237437611238 -17.01155081039118 9.186237437611238
S 1022.2815636346573 511.04607497338236 1022.2815636346573 479.06435944984696
s 7.825313372779942 -9.186237437611238 17.01155081039118 -9.186237437611238
S 1056.3046652554397 447.08264392631156 1056.3046652554397 479.06435944984696
z" fill="none" stroke="none" style="animation-play-state:paused" ></path>


<circle cx="0" cy="0" r="5.405319861275502" fill="#51cacc" transform="translate(1023.689697265625 464.02642822265625)" style="animation-play-state:paused" ></circle>
<path id="path16" d="M 1248.8554273193765 227.40878492930324
c 0 32.21150524318553 -7.881538516949649 9.252240867723502 -17.13377938467315 9.252240867723502
S 1214.5878685500304 259.62029017248875 1214.5878685500304 227.40878492930324
s 7.881538516949649 -9.252240867723502 17.13377938467315 -9.252240867723502
S 1248.8554273193765 195.19727968611772 1248.8554273193765 227.40878492930324
z" fill="none" stroke="none" style="animation-play-state:paused" ></path>


<circle cx="0" cy="0" r="5.807434530571203" fill="#51cacc" transform="translate(1225.188232421875 239.7074737548828)" style="animation-play-state:paused" ></circle>
<path id="path17" d="M 1052.1655864666068 512.3246257621759
c 0 25.255479838339532 -6.17953230087031 7.254233570586887 -13.433765871457197 7.254233570586887
S 1025.2980547236925 537.5801056005154 1025.2980547236925 512.3246257621759
s 6.17953230087031 -7.254233570586887 13.433765871457197 -7.254233570586887
S 1052.1655864666068 487.06914592383634 1052.1655864666068 512.3246257621759
z" fill="none" stroke="none" style="animation-play-state:paused" ></path>


<circle cx="0" cy="0" r="5.3040318477708865" fill="#de9dd6" transform="translate(1025.314453125 514.4495239257812)" style="animation-play-state:paused" ></circle>
<path id="path18" d="M 449.7904008588717 14.680476561021571
c 0 24.935837594363043 -6.101321964578191 7.162421436678747 -13.263743401256939 7.162421436678747
S 423.26291405635783 39.616314155384615 423.26291405635783 14.680476561021571
s 6.101321964578191 -7.162421436678747 13.263743401256939 -7.162421436678747
S 449.7904008588717 -10.255361033341472 449.7904008588717 14.680476561021571
z" fill="none" stroke="none" style="animation-play-state:paused" ></path>


<circle cx="0" cy="0" r="4.281364915826277" fill="#de9dd6" transform="translate(423.39312744140625 9.1928129196167)" style="animation-play-state:paused" ></circle>
<path id="path19" d="M 77.82665215047726 47.45037604846741
c 0 33.59955346336492 -8.221167336780777 9.650935569264393 -17.872102906045168 9.650935569264393
S 42.08244633838693 81.04992951183233 42.08244633838693 47.45037604846741
s 8.221167336780777 -9.650935569264393 17.872102906045168 -9.650935569264393
S 77.82665215047726 13.850822585102492 77.82665215047726 47.45037604846741
z" fill="none" stroke="none" style="animation-play-state:paused" ></path>


<circle cx="0" cy="0" r="5.050942735531982" fill="#de9dd6" transform="translate(73.33338928222656 29.660625457763672)" style="animation-play-state:paused" ></circle>
<path id="path20" d="M 1039.8934078564666 575.7346935646334
c 0 32.70827670709624 -8.003088981523547 9.394930543527645 -17.39801952505119 9.394930543527645
S 1005.0973688063642 608.4429702717297 1005.0973688063642 575.7346935646334
s 8.003088981523547 -9.394930543527645 17.39801952505119 -9.394930543527645
S 1039.8934078564666 543.0264168575371 1039.8934078564666 575.7346935646334
z" fill="none" stroke="none" style="animation-play-state:paused" ></path>


<circle cx="0" cy="0" r="7.3840997486082065" fill="#ff708e" transform="translate(1033.9559326171875 559.2468872070312)" style="animation-play-state:paused" ></circle>
<path id="path21" d="M 398.0795234969542 146.9081718620145
c 0 22.790793694383016 -5.576470797561801 6.54629180583342 -12.12276260339522 6.54629180583342
S 373.8339982901637 169.69896555639752 373.8339982901637 146.9081718620145
s 5.576470797561801 -6.54629180583342 12.12276260339522 -6.54629180583342
S 398.0795234969542 124.1173781676315 398.0795234969542 146.9081718620145
z" fill="none" stroke="none" style="animation-play-state:paused" ></path>


<circle cx="0" cy="0" r="7.803752291357358" fill="#ff708e" transform="translate(373.95379638671875 141.87716674804688)" style="animation-play-state:paused" ></circle>
<path id="path22" d="M 142.6843780659516 452.1909700592887
c 0 36.202960537610096 -8.858171195372682 10.39872270761141 -19.256893902984093 10.39872270761141
S 104.17059025998341 488.3939305968988 104.17059025998341 452.1909700592887
s 8.858171195372682 -10.39872270761141 19.256893902984093 -10.39872270761141
S 142.6843780659516 415.9880095216786 142.6843780659516 452.1909700592887
z" fill="none" stroke="none" style="animation-play-state:paused" ></path>


<circle cx="0" cy="0" r="4.400421979653684" fill="#ff708e" transform="translate(104.63045501708984 463.6172790527344)" style="animation-play-state:paused" ></circle>
<path id="path23" d="M 658.7870955331714 107.35122919914704
c 0 27.722120487989123 -6.783072034295211 7.96273673591177 -14.745808770206981 7.96273673591177
S 629.2954779927575 135.07334968713616 629.2954779927575 107.35122919914704
s 6.783072034295211 -7.96273673591177 14.745808770206981 -7.96273673591177
S 658.7870955331714 79.62910871115793 658.7870955331714 107.35122919914704
z" fill="none" stroke="none" style="animation-play-state:paused" ></path>


<circle cx="0" cy="0" r="5.618851852207702" fill="#e0ff77" transform="translate(658.7830810546875 106.23101806640625)" style="animation-play-state:paused" ></circle>
<path id="path24" d="M 709.354895386581 100.84312138349999
c 0 28.493102712269465 -6.971716621087209 8.184189076928464 -15.155905698015673 8.184189076928464
S 679.0430839905497 129.33622409576947 679.0430839905497 100.84312138349999
s 6.971716621087209 -8.184189076928464 15.155905698015673 -8.184189076928464
S 709.354895386581 72.35001867123053 709.354895386581 100.84312138349999
z" fill="none" stroke="none" style="animation-play-state:paused" ></path>


<circle cx="0" cy="0" r="7.582822281573588" fill="#de9dd6" transform="translate(709.3150024414062 104.30926513671875)" style="animation-play-state:paused" ></circle>
<path id="path25" d="M 295.7661099139028 127.18627186420984
c 0 26.237763664531126 -6.4198783434491045 7.536378924918515 -13.95625726836762 7.536378924918515
S 267.8535953771676 153.42403552874097 267.8535953771676 127.18627186420984
s 6.4198783434491045 -7.536378924918515 13.95625726836762 -7.536378924918515
S 295.7661099139028 100.94850819967871 295.7661099139028 127.18627186420984
z" fill="none" stroke="none" style="animation-play-state:paused" ></path>


<circle cx="0" cy="0" r="4.136751715456009" fill="#9df871" transform="translate(279.87042236328125 119.26651763916016)" style="animation-play-state:paused" ></circle>
<path id="path26" d="M 96.55027004177649 412.34629559291034
c 0 28.553005245515045 -6.986373623902617 8.201395123711768 -15.187768747614385 8.201395123711768
S 66.17473254654772 440.8993008384254 66.17473254654772 412.34629559291034
s 6.986373623902617 -8.201395123711768 15.187768747614385 -8.201395123711768
S 96.55027004177649 383.79329034739527 96.55027004177649 412.34629559291034
z" fill="none" stroke="none" style="animation-play-state:paused" ></path>


<circle cx="0" cy="0" r="4.044676314786845" fill="#de9dd6" transform="translate(96.5299072265625 409.8068542480469)" style="animation-play-state:paused" ></circle>
<path id="path27" d="M 1358.8324340160164 470.81670532492996
c 0 34.949739004523686 -8.55153188408558 10.038754820448293 -18.590286704533874 10.038754820448293
S 1321.6518606069487 505.76644432945363 1321.6518606069487 470.81670532492996
s 8.55153188408558 -10.038754820448293 18.590286704533874 -10.038754820448293
S 1358.8324340160164 435.8669663204063 1358.8324340160164 470.81670532492996
z" fill="none" stroke="none" style="animation-play-state:paused" ></path>


<circle cx="0" cy="0" r="5.026729786031358" fill="#9df871" transform="translate(1353.555419921875 489.0739440917969)" style="animation-play-state:paused" ></circle>
<path id="path28" d="M 1236.0012333909049 614.1701021279276
c 0 26.9075615449384 -6.583765058867906 7.728767677801455 -14.312532736669361 7.728767677801455
S 1207.3761679175664 641.077663672866 1207.3761679175664 614.1701021279276
s 6.583765058867906 -7.728767677801455 14.312532736669361 -7.728767677801455
S 1236.0012333909049 587.2625405829892 1236.0012333909049 614.1701021279276
z" fill="none" stroke="none" style="animation-play-state:paused" ></path>


<circle cx="0" cy="0" r="4.681867021287486" fill="#9df871" transform="translate(1207.5557861328125 607.6078491210938)" style="animation-play-state:paused" ></circle>
<path id="path29" d="M 207.35460463133535 123.47811954387755
c 0 33.446728498635295 -8.183773994346934 9.607039036842053 -17.79081303118899 9.607039036842053
S 171.7729785689574 156.92484804251285 171.7729785689574 123.47811954387755
s 8.183773994346934 -9.607039036842053 17.79081303118899 -9.607039036842053
S 207.35460463133535 90.03139104524226 207.35460463133535 123.47811954387755
z" fill="none" stroke="none" style="animation-play-state:paused" ></path>


<circle cx="0" cy="0" r="6.01024229712566" fill="#51cacc" transform="translate(172.62802124023438 136.97116088867188)" style="animation-play-state:paused" ></circle></g></svg>